<svg xmlns="http://www.w3.org/2000/svg" xmlns:svg="http://www.w3.org/2000/svg" xmlns:xlink="http://www.w3.org/1999/xlink" id="svg2" width="1280" height="1024" version="1.1"><metadata id="metadata8"/><defs id="defs6"><marker id="Arrow1Lend" orient="auto" refX="0" refY="0" style="overflow:visible"><path id="path3765" d="M 0.0,0.0 L 5.0,-5.0 L -12.5,0.0 L 5.0,5.0 L 0.0,0.0 z" transform="scale(0.8) rotate(180) translate(12.5,0)" style="fill-rule:evenodd;stroke:#000;stroke-width:1pt;marker-start:none"/></marker></defs><image id="image3008" width="1280" height="1024" x=".333" y=".498" xlink:href="file:////BRAHMA/kiwi/Projects/OpenJSCAD.org/doc/sshot-03.png"/><path style="fill:none;stroke:red;stroke-width:4;stroke-linecap:round;stroke-linejoin:miter;stroke-miterlimit:4;stroke-opacity:1;stroke-dasharray:none;stroke-dashoffset:0" id="path2987" d="m 1147.661,165.96609 a 131.25424,61.830509 0 1 1 -262.50844,0 131.25424,61.830509 0 1 1 262.50844,0 z" transform="translate(-37.220339,-59.423729)"/><path style="fill:none;stroke:red;stroke-width:5;stroke-linecap:butt;stroke-linejoin:miter;stroke-miterlimit:4;stroke-opacity:1;stroke-dasharray:none;marker-end:none" id="path3757" d="m 850.44068,117.15254 c 0,0 -203.73436,67.20797 -336.27119,197.42373 C 364.72325,461.40532 260.33898,653.01695 260.33898,653.01695"/><path style="fill:none;stroke:red;stroke-width:5;stroke-linecap:butt;stroke-linejoin:miter;stroke-miterlimit:4;stroke-opacity:1;stroke-dasharray:none;marker-end:none" id="path4203" d="m 88.949152,861.25424 c 0,0 379.347458,-103.36342 527.186438,-219.11865 C 754.76768,533.5892 889.33735,319.67096 889.33735,319.67096"/><path style="fill:red;fill-opacity:1;stroke:none" id="path4751" d="m 255.72031,627.20363 -18.02976,62.36158 48.5929,-46.72044 -26.88482,10.9847 z"/><path id="path4753" d="m 892.42913,348.05197 11.59444,-63.87182 -43.58975,51.41988 25.62835,-13.6618 z" style="fill:red;fill-opacity:1;stroke:none"/></svg>