<svg xmlns="http://www.w3.org/2000/svg" xmlns:svg="http://www.w3.org/2000/svg" xmlns:xlink="http://www.w3.org/1999/xlink" id="svg2" width="1280" height="800" version="1.1"><metadata id="metadata8"/><image id="image3840" width="1280" height="800" x="-.006" y="1.008" xlink:href="file:////BRAHMA/kiwi/Projects/OpenJSCAD.org/doc/sshot-06.png"/><text style="font-size:27.15993118px;font-style:normal;font-weight:400;line-height:125%;letter-spacing:0;word-spacing:0;fill:red;fill-opacity:1;stroke:none;font-family:Sans" id="text2987" x="871.452" y="488.811" xml:space="preserve"><tspan id="tspan2989" x="871.452" y="488.811">use your favorite editor or IDE</tspan></text><path style="fill:none;stroke:red;stroke-width:4;stroke-linecap:butt;stroke-linejoin:miter;stroke-miterlimit:4;stroke-opacity:1;stroke-dasharray:none" id="path2991" d="m 995.27638,232.0765 c 0,0 -68.75729,-66.7153 -321.80947,24.32993 -253.05218,91.04523 -467.27625,439.15934 -467.27625,439.15934"/><path style="fill:none;stroke:red;stroke-width:4;stroke-linecap:butt;stroke-linejoin:miter;stroke-miterlimit:4;stroke-opacity:1;stroke-dasharray:none" id="path2993" d="m 1004.1753,275.15104 c 0,0 -39.78629,-48.85408 -68.55304,-59.84444 -32.21483,-12.30769 -93.14296,-2.52929 -93.14296,-2.52929"/><path id="path2995" d="m 1004.1753,293.15104 c 0,0 -53.69057,-64.94246 -91.1125,-77.25015 -29.25319,-9.62107 -62.1046,-4.49006 -62.1046,-4.49006" style="fill:none;stroke:red;stroke-width:4;stroke-linecap:butt;stroke-linejoin:miter;stroke-miterlimit:4;stroke-opacity:1;stroke-dasharray:none"/><text style="font-size:16.32581711px;font-style:normal;font-weight:400;line-height:125%;letter-spacing:0;word-spacing:0;fill:red;fill-opacity:1;stroke:none;font-family:Sans" id="text3780" x="422.183" y="257.223" xml:space="preserve"><tspan id="tspan3784" x="422.183" y="257.223">(chrome allows to drop a folder)</tspan></text><text id="text3786" x="343.281" y="228.058" xml:space="preserve" style="font-size:27.15229225px;font-style:normal;font-weight:400;line-height:125%;letter-spacing:0;word-spacing:0;fill:red;fill-opacity:1;stroke:none;font-family:Sans"><tspan id="tspan3790" x="343.281" y="228.058">drag &amp; drop multiple .jscad once</tspan></text><text id="text3800" x="524.275" y="704.684" xml:space="preserve" style="font-size:21.07926559px;font-style:normal;font-weight:400;line-height:125%;letter-spacing:0;word-spacing:0;fill:red;fill-opacity:1;stroke:none;font-family:Sans"><tspan id="tspan3802" x="524.275" y="704.684">when you update any file, </tspan><tspan id="tspan3021" x="524.275" y="731.033">it auto reloads</tspan></text><path style="fill:none;stroke:red;stroke-width:3;stroke-linecap:round;stroke-linejoin:round;stroke-miterlimit:4;stroke-opacity:1;stroke-dasharray:none" id="path3804" d="m 491.3681,704.26862 5.3556,6.6945 7.36396,-12.71955"/><path id="path3843" d="m 201.02343,703.04753 17.47924,-45.49442 -2.01214,22.67218 23.8558,-11.32444 z" style="fill:red;fill-opacity:1;stroke:none"/></svg>